<?xml version="1.0" standalone="no"?>
<!DOCTYPE svg PUBLIC "-//W3C//DTD SVG 20010904//EN"
 "http://www.w3.org/TR/2001/REC-SVG-20010904/DTD/svg10.dtd">
<svg version="1.0" xmlns="http://www.w3.org/2000/svg"
 width="700.000000pt" height="700.000000pt" viewBox="0 0 700.000000 700.000000"
 preserveAspectRatio="xMidYMid meet">
<metadata>
Created by potrace 1.14, written by Peter Selinger 2001-2017
</metadata>
<g transform="translate(0.000000,700.000000) scale(0.100000,-0.100000)"
fill="#000000" stroke="none">
<path d="M3407 6364 c-1 -1 -49 -5 -107 -8 -58 -4 -132 -11 -165 -16 -33 -5
-78 -11 -100 -15 -61 -9 -96 -15 -145 -26 -25 -6 -52 -12 -60 -14 -206 -45
-480 -152 -700 -271 -92 -50 -310 -189 -358 -229 -9 -8 -47 -39 -85 -69 -511
-415 -866 -1007 -996 -1661 -11 -55 -23 -127 -26 -160 -4 -33 -9 -62 -10 -65
-6 -9 -18 -234 -18 -325 0 -115 11 -291 23 -375 6 -36 13 -83 16 -105 3 -22
15 -80 25 -130 11 -49 22 -99 24 -110 3 -11 21 -72 41 -135 124 -394 313 -729
599 -1060 113 -131 330 -324 488 -434 556 -386 1178 -558 1862 -512 785 52
1545 458 2033 1086 117 151 113 145 186 264 207 334 358 749 401 1106 4 25 8
59 10 75 8 59 18 242 18 320 0 81 -11 299 -17 332 -2 10 -7 43 -11 73 -8 59
-9 66 -26 150 -6 30 -12 66 -14 80 -8 50 -75 271 -119 388 -48 130 -160 361
-221 457 -61 96 -129 200 -135 205 -3 3 -18 23 -35 45 -97 133 -256 303 -396
425 -197 172 -374 292 -586 399 -364 184 -703 278 -1108 307 -79 6 -284 11
-288 8z"/>
</g>
</svg>
