<svg width="550" height="550" viewBox="0 0 550 550" fill="none" xmlns="http://www.w3.org/2000/svg">
<path fill-rule="evenodd" clip-rule="evenodd" d="M275 500C399.264 500 500 399.264 500 275C500 150.736 399.264 50 275 50C150.736 50 50 150.736 50 275C50 399.264 150.736 500 275 500Z" stroke="white" stroke-width="5"/>
<path fill-rule="evenodd" clip-rule="evenodd" d="M147.5 250C149.433 250 151 248.433 151 246.5C151 244.567 149.433 243 147.5 243C145.567 243 144 244.567 144 246.5C144 248.433 145.567 250 147.5 250Z" fill="white"/>
<path fill-rule="evenodd" clip-rule="evenodd" d="M275.5 180C277.433 180 279 178.433 279 176.5C279 174.567 277.433 173 275.5 173C273.567 173 272 174.567 272 176.5C272 178.433 273.567 180 275.5 180Z" fill="white"/>
<path fill-rule="evenodd" clip-rule="evenodd" d="M229.5 153C231.433 153 233 151.433 233 149.5C233 147.567 231.433 146 229.5 146C227.567 146 226 147.567 226 149.5C226 151.433 227.567 153 229.5 153Z" fill="white"/>
<path fill-rule="evenodd" clip-rule="evenodd" d="M254.5 154C256.433 154 258 152.433 258 150.5C258 148.567 256.433 147 254.5 147C252.567 147 251 148.567 251 150.5C251 152.433 252.567 154 254.5 154Z" fill="white"/>
<path fill-rule="evenodd" clip-rule="evenodd" d="M233.5 94C235.433 94 237 92.433 237 90.5C237 88.567 235.433 87 233.5 87C231.567 87 230 88.567 230 90.5C230 92.433 231.567 94 233.5 94Z" fill="white"/>
<path fill-rule="evenodd" clip-rule="evenodd" d="M233.5 94C235.433 94 237 92.433 237 90.5C237 88.567 235.433 87 233.5 87C231.567 87 230 88.567 230 90.5C230 92.433 231.567 94 233.5 94Z" fill="white"/>
<path fill-rule="evenodd" clip-rule="evenodd" d="M253.5 94C254.881 94 256 92.8807 256 91.5C256 90.1193 254.881 89 253.5 89C252.119 89 251 90.1193 251 91.5C251 92.8807 252.119 94 253.5 94Z" fill="white"/>
<path fill-rule="evenodd" clip-rule="evenodd" d="M220.5 132C221.881 132 223 130.881 223 129.5C223 128.119 221.881 127 220.5 127C219.119 127 218 128.119 218 129.5C218 130.881 219.119 132 220.5 132Z" fill="white"/>
<path fill-rule="evenodd" clip-rule="evenodd" d="M180.5 226C181.881 226 183 224.881 183 223.5C183 222.119 181.881 221 180.5 221C179.119 221 178 222.119 178 223.5C178 224.881 179.119 226 180.5 226Z" fill="white"/>
<path d="M162.366 192.327C162.764 191.462 163.462 190.764 164.327 190.366L166 182L167.673 190.366C168.538 190.764 169.236 191.462 169.634 192.327L178 194L169.634 195.673C169.236 196.538 168.538 197.236 167.673 197.634L166 206L164.327 197.634C163.462 197.236 162.764 196.538 162.366 195.673L154 194L162.366 192.327Z" fill="white"/>
<path fill-rule="evenodd" clip-rule="evenodd" d="M401.91 325.579C403.702 326.303 405.742 325.437 406.466 323.645C407.19 321.852 406.324 319.812 404.532 319.088C402.74 318.364 400.7 319.23 399.976 321.022C399.252 322.814 400.118 324.854 401.91 325.579Z" fill="white"/>
<path fill-rule="evenodd" clip-rule="evenodd" d="M419.789 364.08C421.581 364.804 423.621 363.938 424.345 362.146C425.069 360.353 424.203 358.313 422.411 357.589C420.619 356.865 418.579 357.731 417.855 359.523C417.131 361.316 417.997 363.356 419.789 364.08Z" fill="white"/>
<path fill-rule="evenodd" clip-rule="evenodd" d="M367.999 412.181C369.791 412.905 371.831 412.039 372.555 410.247C373.279 408.455 372.413 406.415 370.621 405.691C368.829 404.967 366.789 405.833 366.065 407.625C365.341 409.417 366.206 411.457 367.999 412.181Z" fill="white"/>
<path fill-rule="evenodd" clip-rule="evenodd" d="M396.16 377.182C397.44 377.699 398.897 377.081 399.415 375.801C399.932 374.521 399.313 373.064 398.033 372.546C396.753 372.029 395.296 372.648 394.779 373.928C394.261 375.208 394.88 376.665 396.16 377.182Z" fill="white"/>
<path fill-rule="evenodd" clip-rule="evenodd" d="M355.598 346.773C357.39 347.497 359.43 346.631 360.154 344.839C360.878 343.047 360.012 341.007 358.22 340.283C356.428 339.559 354.388 340.425 353.664 342.217C352.94 344.009 353.806 346.049 355.598 346.773Z" fill="white"/>
<path d="M378.412 474.88C347.449 490.932 312.284 500 275 500C207.931 500 147.716 470.655 106.494 424.104C139.578 417.606 193.031 409.928 245.241 414.517C299.699 419.304 349.805 452.22 378.412 474.88Z" stroke="white" stroke-width="5"/>
<path fill-rule="evenodd" clip-rule="evenodd" d="M103.666 317.527L103.653 317.501L348.092 164.152C348.948 163.503 349.86 162.929 350.827 162.436C366.151 154.629 389.649 170.038 403.312 196.853C416.975 223.669 415.63 251.737 400.306 259.544C399.339 260.037 398.338 260.438 397.31 260.749L129.571 368.367L129.558 368.342C121.53 371.671 109.699 363.662 102.739 350.003C95.7799 336.344 96.2544 322.065 103.666 317.527Z" stroke="white" stroke-width="5"/>
<path d="M129.569 368.364L129.558 368.343C121.53 371.672 109.699 363.663 102.739 350.004C97.835 340.379 96.6224 330.445 98.9278 323.83C99.9123 321.073 101.505 318.886 103.693 317.526L103.674 317.489L114.006 311.008C107.064 316.575 106.76 330.838 113.677 344.415C120.668 358.135 132.561 366.299 141.168 363.707L129.594 368.359L129.592 368.355C129.584 368.358 129.576 368.361 129.569 368.364Z" fill="white"/>
<path d="M220.866 331.672L205.957 337.665L205.912 337.575C195.702 341.73 180.808 331.747 172.102 314.661C163.396 297.574 164.075 279.657 173.437 273.84L173.392 273.752L186.564 265.489C177.663 272.355 177.215 290.4 185.966 307.575C194.853 325.017 210.043 335.311 220.866 331.672Z" fill="white"/>
<path d="M366.563 273.108C361.945 272.034 357.346 269.938 353.024 267.142C342.904 260.596 333.325 249.68 326.39 236.069C319.455 222.458 316.254 208.293 316.906 196.257C317.186 191.094 318.202 186.12 320.063 181.737L331.996 174.252C318.995 183.335 318.288 209.154 330.845 233.799C343.252 258.15 364.197 272.697 379.156 268.047L366.563 273.108Z" fill="white"/>
<path d="M366.563 273.108C361.945 272.034 357.346 269.938 353.024 267.142C342.904 260.596 333.325 249.68 326.39 236.069C319.455 222.458 316.254 208.293 316.906 196.257C317.186 191.094 318.202 186.12 320.063 181.737L331.996 174.252C318.995 183.335 318.288 209.154 330.845 233.799C343.252 258.15 364.197 272.697 379.156 268.047L366.563 273.108Z" stroke="white"/>
<path fill-rule="evenodd" clip-rule="evenodd" d="M400.306 259.544C415.629 251.737 416.975 223.669 403.312 196.853C389.649 170.038 366.15 154.629 350.827 162.436C335.504 170.244 334.158 198.312 347.822 225.127C361.485 251.943 384.983 267.352 400.306 259.544Z" fill="white"/>
<path d="M196 334.389C199.078 335.915 202.136 336.723 205 336.699V413H196V334.389Z" fill="white"/>
<path d="M196.261 334.517C199.731 336.192 203.169 336.949 206.325 336.627L254.919 433C254.919 433 255.943 435.212 251.491 435.262C247.039 435.312 245.919 433 245.919 433L196.261 334.517Z" fill="white"/>
<path d="M195.93 334.358C198.594 335.688 201.245 336.48 203.768 336.662L155.192 433C155.192 433 154.071 435.312 149.619 435.262C145.167 435.212 146.192 433 146.192 433L195.93 334.358Z" fill="white"/>
<path d="M196 334.389C199.078 335.915 202.136 336.723 205 336.699V413H196V334.389Z" stroke="white"/>
<path d="M196.261 334.517C199.731 336.192 203.169 336.949 206.325 336.627L254.919 433C254.919 433 255.943 435.212 251.491 435.262C247.039 435.312 245.919 433 245.919 433L196.261 334.517Z" stroke="white"/>
<path d="M195.93 334.358C198.594 335.688 201.245 336.48 203.768 336.662L155.192 433C155.192 433 154.071 435.312 149.619 435.262C145.167 435.212 146.192 433 146.192 433L195.93 334.358Z" stroke="white"/>
</svg>
